<?xml version="1.0" encoding="utf-8"?>
<!-- Generator: Adobe Illustrator 21.0.0, SVG Export Plug-In . SVG Version: 6.00 Build 0)  -->
<svg version="1.1" id="Layer_1_copy" xmlns="http://www.w3.org/2000/svg" xmlns:xlink="http://www.w3.org/1999/xlink" x="0px"
	 y="0px" viewBox="0 0 602.2 115.4" style="enable-background:new 0 0 602.2 115.4;" xml:space="preserve">
<style type="text/css">
	.st0{enable-background:new    ;}
	.st1{fill:#231F20;}
	.st2{fill:#161E26;}
	.st3{fill:#FFFFFF;}
</style>
<title>Artboard 1</title>
<g class="st0">
	<path class="st1" d="M126.5,49.2c-2.5,0.2-2.8,0.4-2.8,3.2v12.2c0,4.2-0.7,6.4-2.8,8.4c-1.1,1-2.2,1.6-3,1.9l-0.4-0.9
		c1.8-0.9,2.8-2.4,3.1-4.3c0.3-1.6,0.4-3.5,0.4-6.2V52.3c0-2.7-0.3-3-2.9-3.2v-0.9h8.4V49.2z"/>
</g>
<g class="st0">
	<path class="st1" d="M161.2,58.6c0,7-4.9,11.3-10.9,11.3c-5.9,0-10.6-4.6-10.6-10.9c0-5.9,4.1-11.3,11-11.3
		C156.2,47.8,161.2,52.1,161.2,58.6z M143,58.2c0,6.1,3.4,10.6,8,10.6c3.6,0,6.9-3,6.9-9.3c0-6.9-3.6-10.5-7.9-10.5
		C146.3,49,143,52.1,143,58.2z"/>
</g>
<g class="st0">
	<path class="st1" d="M186.1,53.2c-0.6-2.1-1.4-4.3-4.3-4.3c-2.5,0-3.6,1.8-3.6,3.6c0,2.4,1.6,3.5,4.1,4.8c2.5,1.3,5.6,2.8,5.6,6.5
		c0,3.4-2.9,6.2-7.2,6.2c-1.3,0-2.4-0.3-3.2-0.5c-0.8-0.3-1.3-0.5-1.6-0.7c-0.3-0.7-0.7-3.5-0.9-5.1l0.9-0.2c0.5,2,2,5.3,5.3,5.3
		c2.4,0,3.9-1.5,3.9-3.9c0-2.4-1.8-3.6-4.2-4.9c-2.1-1.1-5.4-2.7-5.4-6.4c0-3.1,2.5-5.8,6.7-5.8c1.5,0,2.9,0.4,4.1,0.7
		c0.1,1.2,0.3,2.4,0.6,4.5L186.1,53.2z"/>
</g>
<g class="st0">
	<path class="st1" d="M217.6,64.3c-0.2,1.1-0.8,4.1-1.1,5.1h-15.7v-0.9c3-0.2,3.2-0.5,3.2-3.1v-13c0-2.9-0.3-3-2.8-3.3v-0.9h14.5
		c0,0.8,0.2,3,0.3,4.7l-0.9,0.2c-0.3-1.4-0.6-2.1-1-2.8c-0.5-0.7-1.3-0.9-3.7-0.9h-2.5c-1,0-1.1,0.1-1.1,1v7.4h3.1
		c2.9,0,3.1-0.3,3.5-2.4h0.9v6.3h-0.9c-0.4-2.3-0.7-2.5-3.5-2.5h-3.1v6.2c0,1.5,0.2,2.2,0.8,2.6c0.6,0.4,1.8,0.4,3.4,0.4
		c2.5,0,3.4-0.3,4.1-1.1c0.6-0.7,1.2-1.8,1.6-3.1L217.6,64.3z"/>
</g>
<g class="st0">
	<path class="st1" d="M239,48.3c2.3,0,4.2,0.4,5.5,1.4c1.3,0.9,2.1,2.4,2.1,4.6c0,4.2-3.2,6.3-6.4,6.7c-0.5,0-1.1,0-1.5,0l-2.4-0.6
		v5.1c0,2.8,0.3,2.9,3.2,3.1v0.9h-8.8v-0.9c2.6-0.2,2.9-0.5,2.9-3.2v-13c0-2.9-0.3-3-2.7-3.2v-0.9H239z M236.3,59.2
		c0.4,0.2,1.3,0.4,2.4,0.4c2.1,0,4.7-1.1,4.7-5.3c0-3.5-2.2-5-4.9-5c-0.9,0-1.6,0.2-1.8,0.4c-0.3,0.2-0.4,0.6-0.4,1.5V59.2z"/>
</g>
<g class="st0">
	<path class="st1" d="M282.5,49.2c-2.7,0.2-2.9,0.4-2.9,3.1v13.2c0,2.7,0.3,2.9,2.9,3.1v0.9h-8.7v-0.9c2.8-0.2,3.1-0.4,3.1-3.1v-6.5
		h-11.1v6.5c0,2.7,0.3,2.9,2.9,3.1v0.9H260v-0.9c2.6-0.2,2.9-0.4,2.9-3.1V52.3c0-2.7-0.3-2.9-2.9-3.1v-0.9h8.4v0.9
		c-2.5,0.2-2.7,0.4-2.7,3.1v5.3h11.1v-5.3c0-2.7-0.3-2.9-2.8-3.1v-0.9h8.5V49.2z"/>
</g>
<g class="st0">
	<path class="st1" d="M305.1,48.3c2.6,0,4.4,0.4,5.7,1.3c1.5,1,2.4,2.7,2.4,4.8c0,4.4-3.2,6.4-6.6,6.8c-0.5,0.1-1,0.1-1.4,0.1
		l-2.2-0.5v4.5c0,2.8,0.3,3,3.1,3.2v1.1H296v-1.1c2.4-0.2,2.7-0.5,2.7-3.2V52.6c0-2.8-0.3-3-2.5-3.2v-1.1H305.1z M303,59.4
		c0.4,0.2,1.1,0.3,1.8,0.3c1.2,0,3.8-0.8,3.8-5.2c0-3.7-2.1-4.9-4.1-4.9c-0.6,0-1,0.2-1.2,0.3c-0.2,0.2-0.3,0.5-0.3,1V59.4z"/>
</g>
<g class="st0">
	<path class="st1" d="M346.1,69.8c-0.2,0-0.6,0-1,0c-4.1-0.2-5.4-1.1-6.7-3.2c-0.8-1.3-1.7-3.1-2.7-4.8c-0.5-1-1.1-1.4-2.2-1.4H333
		v4.8c0,2.7,0.3,3,2.8,3.2v1.1h-9.8v-1.1c2.4-0.2,2.8-0.6,2.8-3.2V52.6c0-2.6-0.3-2.9-2.7-3.2v-1.1h9.2c2.8,0,4.5,0.3,5.8,1.2
		c1.3,0.8,2.2,2.3,2.2,4.3c0,2.9-1.9,4.4-4.1,5.3c0.5,0.9,1.7,3.1,2.6,4.6c1.2,1.8,1.9,2.8,2.5,3.5c0.7,0.8,1.2,1.1,2,1.4
		L346.1,69.8z M333.8,59.1c1.4,0,2.5-0.2,3.2-0.9c1.1-0.9,1.6-2.2,1.6-3.9c0-3.5-2-4.7-3.8-4.7c-0.8,0-1.3,0.1-1.5,0.3
		c-0.2,0.2-0.3,0.5-0.3,1.2v8H333.8z"/>
	<path class="st1" d="M358.6,69.5v-1.1c2.4-0.2,2.7-0.5,2.7-3.2V52.6c0-2.8-0.3-3-2.7-3.2v-1.1h9.8v1.1c-2.4,0.2-2.7,0.5-2.7,3.2
		v12.5c0,2.7,0.3,3,2.7,3.2v1.1H358.6z"/>
</g>
<g class="st0">
	<path class="st1" d="M403.5,49.4c-1.8,0.1-2.4,0.5-2.6,2c-0.1,1-0.3,2.5-0.3,5.4v12.9H399l-13.6-16.2h-0.1v7.3
		c0,2.9,0.2,4.3,0.3,5.3c0.2,1.4,0.7,2.1,3.1,2.2v1.1h-8v-1.1c1.8-0.1,2.6-0.7,2.7-2.1c0.1-1.1,0.3-2.5,0.3-5.4v-6.8
		c0-2.1-0.1-2.7-0.7-3.5c-0.6-0.8-1.3-1-2.7-1.2v-1.1h6l12.5,14.3h0.1v-5.7c0-2.9-0.2-4.4-0.3-5.3c-0.2-1.4-0.8-2-3.2-2.1v-1.1h8
		V49.4z"/>
</g>
<g class="st0">
	<path class="st1" d="M436.3,63.9c-0.4,1.6-1.3,4-1.8,5.2c-0.8,0.2-3.8,0.8-6.1,0.8c-8.7,0-12.3-5.6-12.3-10.8
		c0-6.7,5.1-11.3,12.9-11.3c2.6,0,5.1,0.7,5.9,0.9c0.3,1.8,0.5,3.3,0.7,5.3l-1.2,0.2c-1.1-3.9-3.6-5-6.1-5c-4.7,0-7.3,4.5-7.3,9.3
		c0,6,3.2,9.9,7.7,9.9c2.7,0,4.7-1.7,6.4-5L436.3,63.9z"/>
	<path class="st1" d="M466.5,64c-0.2,1.5-0.9,4.4-1.1,5.4h-16.6v-1.1c2.8-0.2,3.1-0.4,3.1-3.2V52.6c0-2.8-0.3-3-2.6-3.2v-1.1h15.4
		c0,0.6,0.2,2.9,0.3,4.9l-1.2,0.2c-0.3-1.1-0.8-2.2-1.3-2.8c-0.6-0.6-1.4-0.8-3.3-0.8h-1.6c-1.2,0-1.3,0.1-1.3,1.1v6.9h2.2
		c2.7,0,3.2-0.2,3.6-2.4h1.2v6.6H462c-0.5-2.3-0.8-2.5-3.6-2.5h-2.2v5.6c0,1.5,0.1,2.3,0.8,2.7c0.6,0.3,1.7,0.3,2.9,0.3
		c1.7,0,2.8-0.2,3.6-1c0.6-0.7,1.2-1.8,1.8-3.2L466.5,64z"/>
</g>
<g class="st0">
	<path class="st1" d="M479.5,67.9c0-1.1,0.8-2,1.9-2c1.1,0,1.9,0.8,1.9,2c0,1.2-0.8,2-1.9,2C480.3,69.9,479.5,69.1,479.5,67.9z"/>
</g>
<g class="st0">
	<path class="st1" d="M517.4,64c-0.5,1.5-1.3,3.9-1.9,5c-0.9,0.2-3.7,0.9-6,0.9c-8.2,0-11.8-5.6-11.8-10.8c0-6.8,5.2-11.4,12.6-11.4
		c2.6,0,4.9,0.7,5.8,0.9c0.3,1.8,0.5,3.2,0.7,5l-1,0.2c-0.9-3.5-2.9-4.9-6.3-4.9c-5.3,0-8.1,4.6-8.1,9.5c0,6.1,3.5,10.2,8.4,10.2
		c3.2,0,5-1.8,6.6-5L517.4,64z"/>
</g>
<g class="st0">
	<path class="st1" d="M552.4,58.6c0,7-5,11.3-11,11.3s-10.7-4.6-10.7-10.9c0-5.8,4.1-11.3,11-11.3C547.5,47.8,552.4,52.1,552.4,58.6
		z M534.5,58.2c0,6,3.2,10.5,7.7,10.5c3.5,0,6.6-3,6.6-9.3c0-6.8-3.4-10.5-7.6-10.5C537.6,49,534.5,52.2,534.5,58.2z"/>
</g>
<g class="st0">
	<path class="st1" d="M583.7,69.5v-0.9c2.6-0.3,2.7-0.5,2.7-3.8l-0.1-13.2h-0.1l-7.8,17.7h-0.7L570.5,52h-0.1l-0.5,9.1
		c-0.1,2.7-0.1,4.1-0.1,5.4c0.1,1.5,0.8,1.8,3,2v1h-7.6v-1c1.9-0.2,2.5-0.6,2.7-1.9c0.2-1.1,0.4-2.6,0.6-6l0.5-6.7
		c0.3-4.1,0.1-4.3-2.8-4.6v-0.9h5.6l7.2,15.9l7.3-15.9h5.7v0.9c-2.8,0.3-3,0.4-2.9,3.6l0.3,11.8c0.1,3.4,0.2,3.6,3,3.8v0.9H583.7z"
		/>
</g>
<polygon class="st2" points="53.7,6.4 10,32.5 10,84.6 53.6,108.9 97.9,82.5 97.9,33.3 "/>
<g class="st0">
	<path class="st3" d="M48.9,41.5c-4.1,0.3-4.6,0.7-4.6,5.2v20c0,6.9-1.1,10.6-4.6,13.8c-1.8,1.7-3.6,2.7-5,3.1l-0.7-1.5
		c3-1.5,4.6-4,5.1-7c0.5-2.6,0.6-5.7,0.6-10.2V46.7c0-4.5-0.4-4.9-4.8-5.2V40h13.9V41.5z"/>
	<path class="st3" d="M62.8,40c3.8,0,6.9,0.6,9,2.3c2.1,1.6,3.5,4,3.5,7.6c0,6.9-5.3,10.3-10.5,11c-0.8,0.1-1.8,0.1-2.4,0l-4-1v8.4
		c0,4.6,0.5,4.8,5.3,5.1v1.5H49.3v-1.5c4.3-0.3,4.7-0.8,4.7-5.2V46.7c0-4.7-0.4-4.9-4.4-5.2V40H62.8z M58.5,58
		c0.7,0.3,2.1,0.6,3.9,0.6c3.5,0,7.8-1.9,7.8-8.7c0-5.8-3.7-8.3-8.1-8.3c-1.5,0-2.6,0.3-3,0.6c-0.4,0.4-0.6,1-0.6,2.5V58z"/>
</g>
</svg>
